<svg width="88" height="88" viewBox="0 0 88 88" fill="none" xmlns="http://www.w3.org/2000/svg">
<g id="Group 18">
<g id="Bitmap">
<circle id="Mask" cx="44" cy="44" r="44" fill="#36536B"/>
<mask id="mask0_0_3369" style="mask-type:luminance" maskUnits="userSpaceOnUse" x="0" y="0" width="88" height="88">
<circle id="Mask_2" cx="44" cy="44" r="44" fill="white"/>
</mask>
<g mask="url(#mask0_0_3369)">
</g>
</g>
<path id="Combined Shape" fill-rule="evenodd" clip-rule="evenodd" d="M34.3457 42.1417C33.8208 42.6473 33.1104 42.9623 32.3255 42.9623C30.7162 42.9623 29.4069 41.6529 29.4069 40.0436C29.4069 38.4343 30.7162 37.125 32.3255 37.125C33.9348 37.125 35.2441 38.4343 35.2441 40.0436C35.2441 40.1352 35.2319 40.2235 35.2198 40.3118C35.2158 40.3402 35.2119 40.3687 35.2084 40.3973L38.0883 41.8371C38.6132 41.3314 39.3236 41.0165 40.1085 41.0165C40.5577 41.0165 40.9783 41.127 41.3588 41.3091L45.2655 37.4024C45.0834 37.0219 44.9729 36.6013 44.9729 36.1521C44.9729 34.5428 46.2822 33.2335 47.8915 33.2335C48.4889 33.2335 49.044 33.4151 49.5072 33.7245L52.9016 31.1793C52.8154 30.9044 52.7559 30.6179 52.7559 30.3149C52.7559 28.7056 54.0652 27.3962 55.6745 27.3962C57.2838 27.3962 58.5932 28.7056 58.5932 30.3149C58.5932 31.9242 57.2838 33.2335 55.6745 33.2335C55.0771 33.2335 54.522 33.0518 54.0589 32.7425L50.6645 35.2877C50.7506 35.5626 50.8102 35.8491 50.8102 36.1521C50.8102 37.7614 49.5008 39.0708 47.8915 39.0708C47.4423 39.0708 47.0218 38.9603 46.6412 38.7781L42.7345 42.6848C42.9167 43.0654 43.0271 43.4859 43.0271 43.9351C43.0271 45.5444 41.7178 46.8538 40.1085 46.8538C38.4992 46.8538 37.1899 45.5444 37.1899 43.9351C37.1899 43.8436 37.202 43.7553 37.2142 43.667C37.2181 43.6385 37.2221 43.6101 37.2256 43.5815L34.3457 42.1417ZM58.5932 58.658H59.6309C60.1685 58.658 60.6038 59.0933 60.6038 59.6309C60.6038 60.1685 60.1685 60.6038 59.6309 60.6038H28.3691C27.8315 60.6038 27.3962 60.1685 27.3962 59.6309C27.3962 59.0933 27.8315 58.658 28.3691 58.658H29.4069V47.8266C29.4069 47.289 29.8421 46.8538 30.3797 46.8538H34.2712C34.8089 46.8538 35.2441 47.289 35.2441 47.8266V58.658H37.1899V51.7182C37.1899 51.1805 37.6251 50.7453 38.1627 50.7453H42.0543C42.5919 50.7453 43.0271 51.1805 43.0271 51.7182V58.658H44.9729V43.9351C44.9729 43.3975 45.4082 42.9623 45.9458 42.9623H49.8373C50.3749 42.9623 50.8102 43.3975 50.8102 43.9351V58.658H52.7559V38.0979C52.7559 37.5603 53.1912 37.125 53.7288 37.125H57.6203C58.1579 37.125 58.5932 37.5603 58.5932 38.0979V58.658Z" fill="white"/>
</g>
</svg>
